<svg xmlns="http://www.w3.org/2000/svg" xmlns:xlink="http://www.w3.org/1999/xlink"><defs><symbol fill="none" viewBox="0 0 76 76" id="chartbar-icon"><circle cx="22.5" cy="22.5" r="22.5" fill="#53ACFF" /><path d="M13.063 61.75V40.375h16.624M67.688 61.75H8.312M29.688 61.75V26.125h16.625" stroke="#000" stroke-width="2" stroke-linecap="round" stroke-linejoin="round" /><path d="M62.938 11.875H46.311V61.75h16.626V11.875Z" stroke="#000" stroke-width="2" stroke-linecap="round" stroke-linejoin="round" /></symbol><symbol fill="none" viewBox="0 0 77 76" id="chartpie-icon"><circle cx="54.5" cy="22.5" r="22.5" fill="#FF5353" /><path d="M38 38V9.5M62.682 23.75l-49.364 28.5M9.975 43.21A28.545 28.545 0 0 1 28.5 11.122v21.393L9.975 43.21Z" stroke="#000" stroke-width="2" stroke-linecap="round" stroke-linejoin="round" /><path d="M38 9.5a28.5 28.5 0 1 1-24.576 42.94" stroke="#000" stroke-width="2" stroke-linecap="round" stroke-linejoin="round" /></symbol><symbol fill="none" viewBox="0 0 76 76" id="crown-icon"><circle cx="53.5" cy="22.5" r="22.5" fill="#53C1FF" /><path d="M13.398 58.193a2.38 2.38 0 0 0 2.96 1.74 81.315 81.315 0 0 1 43.269-.004 2.378 2.378 0 0 0 2.96-1.74l7.567-32.156a2.374 2.374 0 0 0-3.276-2.715L51.86 29.993a2.375 2.375 0 0 1-3.041-1.017l-8.744-15.739a2.375 2.375 0 0 0-4.152 0L27.18 28.976a2.375 2.375 0 0 1-3.04 1.017L9.12 23.317a2.374 2.374 0 0 0-3.276 2.714l7.554 32.162Z" stroke="#000" stroke-width="2" stroke-linecap="round" stroke-linejoin="round" /><path d="M28.5 47.998a90.793 90.793 0 0 1 19 0" stroke="#000" stroke-width="2" stroke-linecap="round" stroke-linejoin="round" /></symbol><symbol fill="none" viewBox="0 0 67 78" id="figma-icon"><circle cx="41.5" cy="22.5" r="22.5" fill="#FFBA53" /><path d="M42.398 53.398a8.898 8.898 0 1 0 0-17.796 8.898 8.898 0 0 0 0 17.796ZM33.5 35.602V17.805h-8.898a8.899 8.899 0 1 0 0 17.797H33.5Z" stroke="#000" stroke-width="2" stroke-linecap="round" stroke-linejoin="round" /><path d="M33.5 53.398V35.602h-8.898a8.899 8.899 0 1 0 0 17.796H33.5ZM33.5 35.602V17.805h8.898a8.899 8.899 0 1 1 0 17.797H33.5Z" stroke="#000" stroke-width="2" stroke-linecap="round" stroke-linejoin="round" /><path d="M33.5 53.398v8.899a8.898 8.898 0 1 1-8.898-8.899H33.5Z" stroke="#000" stroke-width="2" stroke-linecap="round" stroke-linejoin="round" /></symbol><symbol fill="none" viewBox="0 0 76 76" id="file-icon"><g clip-path="url(#file-icon_a)"><circle cx="53.5" cy="22.5" r="22.5" fill="#FF5391" /><path d="M59.375 66.5h-42.75a2.375 2.375 0 0 1-2.375-2.375v-52.25A2.375 2.375 0 0 1 16.625 9.5h28.5L61.75 26.125v38a2.375 2.375 0 0 1-2.375 2.375v0Z" stroke="#000" stroke-width="2" stroke-linecap="round" stroke-linejoin="round" /><path d="M45.125 9.5v16.625h16.627" stroke="#000" stroke-width="2" stroke-linecap="round" stroke-linejoin="round" /></g><defs></defs></symbol><clipPath id="file-icon_a"><path fill="#fff" d="M0 0h76v76H0z" /></clipPath><symbol fill="none" viewBox="0 0 76 76" id="star-icon"><circle cx="22.5" cy="22.5" r="22.5" fill="#7553FF" /><path d="m39.31 56.624 14.973 9.486c1.913 1.213 4.29-.59 3.722-2.825l-4.326-17.018a2.6 2.6 0 0 1 .842-2.635l13.427-11.175c1.764-1.468.854-4.396-1.413-4.543L49 26.776a2.5 2.5 0 0 1-2.151-1.589L40.309 8.72a2.47 2.47 0 0 0-4.618 0l-6.54 16.468A2.5 2.5 0 0 1 27 26.776L9.465 27.914c-2.267.147-3.177 3.075-1.413 4.543l13.427 11.175a2.6 2.6 0 0 1 .842 2.635L18.31 62.05c-.681 2.681 2.17 4.845 4.467 3.39l13.915-8.815a2.439 2.439 0 0 1 2.618 0v0Z" stroke="#000" stroke-width="2" stroke-linecap="round" stroke-linejoin="round" /></symbol></defs></svg>